<svg xmlns="http://www.w3.org/2000/svg" viewBox="0 0 1200 630">
  <rect width="1200" height="630" fill="#f8fafc"/>
  <rect x="0" y="0" width="1200" height="630" fill="url(#bg)"/>
  <defs>
    <linearGradient id="bg" x1="0%" y1="0%" x2="100%" y2="100%">
      <stop offset="0%" style="stop-color:#f0f4ff"/>
      <stop offset="100%" style="stop-color:#e0e9ff"/>
    </linearGradient>
  </defs>
  <!-- Logo box -->
  <rect x="480" y="180" width="80" height="80" rx="20" fill="#4f46e5"/>
  <rect x="496" y="210" width="8" height="28" rx="4" fill="white" opacity="0.6"/>
  <rect x="508" y="202" width="8" height="36" rx="4" fill="white" opacity="0.8"/>
  <rect x="520" y="196" width="8" height="42" rx="4" fill="white"/>
  <rect x="532" y="204" width="8" height="34" rx="4" fill="white" opacity="0.8"/>
  <!-- Text -->
  <text x="600" y="320" font-family="Inter, sans-serif" font-size="64" font-weight="700" fill="#0f172a" text-anchor="middle">VoxTutor</text>
  <text x="600" y="378" font-family="Inter, sans-serif" font-size="28" font-weight="400" fill="#64748b" text-anchor="middle">AI Mock Interview Platform</text>
  <!-- Waveform decoration -->
  <rect x="380" y="430" width="8" height="20" rx="4" fill="#4f46e5" opacity="0.3"/>
  <rect x="396" y="420" width="8" height="30" rx="4" fill="#4f46e5" opacity="0.5"/>
  <rect x="412" y="408" width="8" height="42" rx="4" fill="#4f46e5" opacity="0.7"/>
  <rect x="428" y="416" width="8" height="34" rx="4" fill="#4f46e5" opacity="0.6"/>
  <rect x="444" y="422" width="8" height="28" rx="4" fill="#4f46e5" opacity="0.5"/>
  <rect x="756" y="430" width="8" height="20" rx="4" fill="#4f46e5" opacity="0.3"/>
  <rect x="740" y="420" width="8" height="30" rx="4" fill="#4f46e5" opacity="0.5"/>
  <rect x="724" y="408" width="8" height="42" rx="4" fill="#4f46e5" opacity="0.7"/>
  <rect x="708" y="416" width="8" height="34" rx="4" fill="#4f46e5" opacity="0.6"/>
  <rect x="692" y="422" width="8" height="28" rx="4" fill="#4f46e5" opacity="0.5"/>
</svg>